ffmpeg started on 2025-05-12 at 18:54:49
Report written to "D:\Convert\FFMetrics\reports\ssim_report-6.txt"
Log level: 32
Command line:
ffmpeg -hide_banner -nostdin -i "G:\\\xc0\xed\xe8\xec\xe5\\\xce\xed\xe3\xee\xe8\xed\xe3\xe8\\!_35_\xcb\xe5\xf2\xee_2024\\DreamCast\\\xcf\xee\xea\xe0-\xef\xee\xea\xe0, \xc7\xe5\xec\xeb\xff\\[DC] Bye Bye Earth - 09_Telegram_HEVC.mkv" -i "G:\\\xc0\xed\xe8\xec\xe5\\\xce\xed\xe3\xee\xe8\xed\xe3\xe8\\!_35_\xcb\xe5\xf2\xee_2024\\DreamCast\\\xcf\xee\xea\xe0-\xef\xee\xea\xe0, \xc7\xe5\xec\xeb\xff\\[DC] Bye Bye Earth - 09_Telegram.mp4" -lavfi "[0:v]settb=AVTB,setpts=PTS-STARTPTS,format=pix_fmts=yuv420p10,fps=24000/1001,scale=1920:1080:flags=bicubic[main];[1:v]settb=AVTB,setpts=PTS-STARTPTS,format=pix_fmts=yuv420p,fps=24000/1001,scale=1920:1080:flags=bicubic[ref];[main][ref]ssim=eof_action=endall:stats_file='D\\:/Convert/FFMetrics/logs/ssim_logfile-6.txt'" -f null -
Input #0, matroska,webm, from 'G:\Аниме\Онгоинги\!_35_Лето_2024\DreamCast\Пока-пока, Земля\[DC] Bye Bye Earth - 09_Telegram_HEVC.mkv':
  Metadata:
    COMPATIBLE_BRANDS: isomiso2avc1mp41
    MAJOR_BRAND     : isom
    MINOR_VERSION   : 512
    ENCODER         : Lavf61.7.100
  Duration: 00:23:46.65, start: -0.021000, bitrate: 1388 kb/s
  Stream #0:0: Video: hevc (Main 10), yuv420p10le(tv, bt709, progressive), 1920x1080 [SAR 1:1 DAR 16:9], 23.98 fps, 23.98 tbr, 1k tbn (default)
      Metadata:
        HANDLER_NAME    : VideoHandler
        VENDOR_ID       : [0][0][0][0]
        ENCODER         : Lavc61.19.100 libx265
        BPS             : 1191099
        DURATION        : 00:23:46.591708333
        NUMBER_OF_FRAMES: 34204
        NUMBER_OF_BYTES : 212401562
        _STATISTICS_WRITING_APP: mkvpropedit v66.0.0 ('Josie') 64-bit
        _STATISTICS_WRITING_DATE_UTC: 2025-05-09 17:02:25
        _STATISTICS_TAGS: BPS DURATION NUMBER_OF_FRAMES NUMBER_OF_BYTES
  Stream #0:1: Audio: aac (LC), 48000 Hz, stereo, fltp (default)
      Metadata:
        HANDLER_NAME    : SoundHandler
        VENDOR_ID       : [0][0][0][0]
        ENCODER         : Lavc61.19.100 aac
        BPS             : 193126
        DURATION        : 00:23:46.645000000
        NUMBER_OF_FRAMES: 66875
        NUMBER_OF_BYTES : 34440321
        _STATISTICS_WRITING_APP: mkvpropedit v66.0.0 ('Josie') 64-bit
        _STATISTICS_WRITING_DATE_UTC: 2025-05-09 17:02:25
        _STATISTICS_TAGS: BPS DURATION NUMBER_OF_FRAMES NUMBER_OF_BYTES
Input #1, mov,mp4,m4a,3gp,3g2,mj2, from 'G:\Аниме\Онгоинги\!_35_Лето_2024\DreamCast\Пока-пока, Земля\[DC] Bye Bye Earth - 09_Telegram.mp4':
  Metadata:
    major_brand     : isom
    minor_version   : 512
    compatible_brands: isomiso2avc1mp41
    encoder         : Lavf60.12.100
  Duration: 00:23:46.62, start: 0.000000, bitrate: 3831 kb/s
  Stream #1:0[0x1](und): Video: h264 (High) (avc1 / 0x31637661), yuv420p(tv, bt709, progressive), 1920x1080 [SAR 1:1 DAR 16:9], 3683 kb/s, 23.98 fps, 23.98 tbr, 24k tbn (default)
      Metadata:
        handler_name    : VideoHandler
        vendor_id       : [0][0][0][0]
        encoder         : Lavc60.26.100 h264_qsv
  Stream #1:1[0x2](und): Audio: aac (HE-AACv2) (mp4a / 0x6134706D), 48000 Hz, stereo, fltp, 144 kb/s (default)
      Metadata:
        handler_name    : SoundHandler
        vendor_id       : [0][0][0][0]
Stream mapping:
  Stream #0:0 (hevc) -> settb:default
  Stream #1:0 (h264) -> settb:default
  ssim:default -> Stream #0:0 (wrapped_avframe)
  Stream #0:1 -> #0:1 (aac (native) -> pcm_s16le (native))
Output #0, null, to 'pipe:':
  Metadata:
    COMPATIBLE_BRANDS: isomiso2avc1mp41
    MAJOR_BRAND     : isom
    MINOR_VERSION   : 512
    encoder         : Lavf61.7.100
  Stream #0:0: Video: wrapped_avframe, yuv420p10le(tv, bt709, progressive), 1920x1080 [SAR 1:1 DAR 16:9], q=2-31, 200 kb/s, 23.98 fps, 23.98 tbn
      Metadata:
        encoder         : Lavc61.19.100 wrapped_avframe
  Stream #0:1: Audio: pcm_s16le, 48000 Hz, stereo, s16, 1536 kb/s (default)
      Metadata:
        HANDLER_NAME    : SoundHandler
        VENDOR_ID       : [0][0][0][0]
        _STATISTICS_TAGS: BPS DURATION NUMBER_OF_FRAMES NUMBER_OF_BYTES
        BPS             : 193126
        DURATION        : 00:23:46.645000000
        NUMBER_OF_FRAMES: 66875
        NUMBER_OF_BYTES : 34440321
        _STATISTICS_WRITING_APP: mkvpropedit v66.0.0 ('Josie') 64-bit
        _STATISTICS_WRITING_DATE_UTC: 2025-05-09 17:02:25
        encoder         : Lavc61.19.100 pcm_s16le
frame=  174 fps=0.0 q=-0.0 size=N/A time=00:00:07.25 bitrate=N/A speed=  14x    frame=  416 fps=406 q=-0.0 size=N/A time=00:00:17.35 bitrate=N/A speed=16.9x    frame=  618 fps=399 q=-0.0 size=N/A time=00:00:25.77 bitrate=N/A speed=16.7x    frame=  791 fps=385 q=-0.0 size=N/A time=00:00:32.99 bitrate=N/A speed=  16x    frame=  990 fps=384 q=-0.0 size=N/A time=00:00:41.29 bitrate=N/A speed=  16x    frame= 1210 fps=392 q=-0.0 size=N/A time=00:00:50.46 bitrate=N/A speed=16.4x    frame= 1417 fps=393 q=-0.0 size=N/A time=00:00:59.10 bitrate=N/A speed=16.4x    frame= 1599 fps=388 q=-0.0 size=N/A time=00:01:06.69 bitrate=N/A speed=16.2x    frame= 1809 fps=390 q=-0.0 size=N/A time=00:01:15.45 bitrate=N/A speed=16.3x    frame= 2017 fps=392 q=-0.0 size=N/A time=00:01:24.12 bitrate=N/A speed=16.3x    frame= 2234 fps=394 q=-0.0 size=N/A time=00:01:33.17 bitrate=N/A speed=16.4x    frame= 2427 fps=393 q=-0.0 size=N/A time=00:01:41.22 bitrate=N/A speed=16.4x    frame= 2613 fps=390 q=-0.0 size=N/A time=00:01:48.98 bitrate=N/A speed=16.3x    frame= 2797 fps=388 q=-0.0 size=N/A time=00:01:56.65 bitrate=N/A speed=16.2x    frame= 3018 fps=390 q=-0.0 size=N/A time=00:02:05.87 bitrate=N/A speed=16.3x    frame= 3217 fps=390 q=-0.0 size=N/A time=00:02:14.17 bitrate=N/A speed=16.3x    frame= 3463 fps=395 q=-0.0 size=N/A time=00:02:24.43 bitrate=N/A speed=16.5x    frame= 3712 fps=400 q=-0.0 size=N/A time=00:02:34.82 bitrate=N/A speed=16.7x    frame= 3957 fps=404 q=-0.0 size=N/A time=00:02:45.03 bitrate=N/A speed=16.9x    frame= 4200 fps=407 q=-0.0 size=N/A time=00:02:55.17 bitrate=N/A speed=  17x    frame= 4439 fps=410 q=-0.0 size=N/A time=00:03:05.14 bitrate=N/A speed=17.1x    frame= 4688 fps=413 q=-0.0 size=N/A time=00:03:15.52 bitrate=N/A speed=17.2x    frame= 4943 fps=417 q=-0.0 size=N/A time=00:03:26.16 bitrate=N/A speed=17.4x    frame= 5185 fps=419 q=-0.0 size=N/A time=00:03:36.25 bitrate=N/A speed=17.5x    frame= 5425 fps=421 q=-0.0 size=N/A time=00:03:46.26 bitrate=N/A speed=17.6x    frame= 5671 fps=423 q=-0.0 size=N/A time=00:03:56.52 bitrate=N/A speed=17.6x    frame= 5919 fps=425 q=-0.0 size=N/A time=00:04:06.87 bitrate=N/A speed=17.7x    frame= 6174 fps=428 q=-0.0 size=N/A time=00:04:17.50 bitrate=N/A speed=17.8x    frame= 6350 fps=425 q=-0.0 size=N/A time=00:04:24.84 bitrate=N/A speed=17.7x    frame= 6481 fps=419 q=-0.0 size=N/A time=00:04:30.31 bitrate=N/A speed=17.5x    frame= 6689 fps=418 q=-0.0 size=N/A time=00:04:38.98 bitrate=N/A speed=17.4x    frame= 6941 fps=421 q=-0.0 size=N/A time=00:04:49.49 bitrate=N/A speed=17.6x    frame= 7156 fps=421 q=-0.0 size=N/A time=00:04:58.46 bitrate=N/A speed=17.5x    frame= 7397 fps=422 q=-0.0 size=N/A time=00:05:08.51 bitrate=N/A speed=17.6x    frame= 7649 fps=424 q=-0.0 size=N/A time=00:05:19.02 bitrate=N/A speed=17.7x    frame= 7848 fps=423 q=-0.0 size=N/A time=00:05:27.32 bitrate=N/A speed=17.6x    frame= 8098 fps=425 q=-0.0 size=N/A time=00:05:37.75 bitrate=N/A speed=17.7x    frame= 8359 fps=427 q=-0.0 size=N/A time=00:05:48.63 bitrate=N/A speed=17.8x    frame= 8594 fps=428 q=-0.0 size=N/A time=00:05:58.44 bitrate=N/A speed=17.8x    frame= 8847 fps=429 q=-0.0 size=N/A time=00:06:08.99 bitrate=N/A speed=17.9x    frame= 9042 fps=428 q=-0.0 size=N/A time=00:06:17.12 bitrate=N/A speed=17.8x    frame= 9248 fps=427 q=-0.0 size=N/A time=00:06:25.71 bitrate=N/A speed=17.8x    frame= 9411 fps=425 q=-0.0 size=N/A time=00:06:32.51 bitrate=N/A speed=17.7x    frame= 9635 fps=425 q=-0.0 size=N/A time=00:06:41.85 bitrate=N/A speed=17.7x    frame= 9886 fps=426 q=-0.0 size=N/A time=00:06:52.32 bitrate=N/A speed=17.8x    frame=10159 fps=428 q=-0.0 size=N/A time=00:07:03.71 bitrate=N/A speed=17.9x    frame=10417 fps=430 q=-0.0 size=N/A time=00:07:14.47 bitrate=N/A speed=17.9x    frame=10671 fps=431 q=-0.0 size=N/A time=00:07:25.06 bitrate=N/A speed=  18x    frame=10934 fps=433 q=-0.0 size=N/A time=00:07:36.03 bitrate=N/A speed=  18x    frame=11182 fps=434 q=-0.0 size=N/A time=00:07:46.38 bitrate=N/A speed=18.1x    frame=11449 fps=435 q=-0.0 size=N/A time=00:07:57.51 bitrate=N/A speed=18.2x    frame=11711 fps=437 q=-0.0 size=N/A time=00:08:08.44 bitrate=N/A speed=18.2x    frame=11966 fps=438 q=-0.0 size=N/A time=00:08:19.08 bitrate=N/A speed=18.3x    frame=12221 fps=439 q=-0.0 size=N/A time=00:08:29.71 bitrate=N/A speed=18.3x    frame=12478 fps=440 q=-0.0 size=N/A time=00:08:40.43 bitrate=N/A speed=18.4x    frame=12731 fps=441 q=-0.0 size=N/A time=00:08:50.98 bitrate=N/A speed=18.4x    frame=12966 fps=441 q=-0.0 size=N/A time=00:09:00.79 bitrate=N/A speed=18.4x    frame=13186 fps=441 q=-0.0 size=N/A time=00:09:09.96 bitrate=N/A speed=18.4x    frame=13430 fps=441 q=-0.0 size=N/A time=00:09:20.14 bitrate=N/A speed=18.4x    frame=13659 fps=442 q=-0.0 size=N/A time=00:09:29.69 bitrate=N/A speed=18.4x    frame=13879 fps=441 q=-0.0 size=N/A time=00:09:38.86 bitrate=N/A speed=18.4x    frame=14075 fps=440 q=-0.0 size=N/A time=00:09:47.04 bitrate=N/A speed=18.4x    frame=14297 fps=440 q=-0.0 size=N/A time=00:09:56.30 bitrate=N/A speed=18.4x    frame=14538 fps=440 q=-0.0 size=N/A time=00:10:06.35 bitrate=N/A speed=18.4x    frame=14775 fps=441 q=-0.0 size=N/A time=00:10:16.24 bitrate=N/A speed=18.4x    frame=14994 fps=441 q=-0.0 size=N/A time=00:10:25.37 bitrate=N/A speed=18.4x    frame=15222 fps=440 q=-0.0 size=N/A time=00:10:34.88 bitrate=N/A speed=18.4x    frame=15465 fps=441 q=-0.0 size=N/A time=00:10:45.01 bitrate=N/A speed=18.4x    frame=15711 fps=441 q=-0.0 size=N/A time=00:10:55.27 bitrate=N/A speed=18.4x    frame=15970 fps=442 q=-0.0 size=N/A time=00:11:06.08 bitrate=N/A speed=18.4x    frame=16225 fps=443 q=-0.0 size=N/A time=00:11:16.71 bitrate=N/A speed=18.5x    frame=16468 fps=443 q=-0.0 size=N/A time=00:11:26.85 bitrate=N/A speed=18.5x    frame=16738 fps=445 q=-0.0 size=N/A time=00:11:38.11 bitrate=N/A speed=18.5x    frame=17004 fps=445 q=-0.0 size=N/A time=00:11:49.20 bitrate=N/A speed=18.6x    frame=17252 fps=446 q=-0.0 size=N/A time=00:11:59.55 bitrate=N/A speed=18.6x    frame=17523 fps=447 q=-0.0 size=N/A time=00:12:10.85 bitrate=N/A speed=18.6x    frame=17786 fps=448 q=-0.0 size=N/A time=00:12:21.82 bitrate=N/A speed=18.7x    frame=18040 fps=448 q=-0.0 size=N/A time=00:12:32.41 bitrate=N/A speed=18.7x    frame=18305 fps=449 q=-0.0 size=N/A time=00:12:43.47 bitrate=N/A speed=18.7x    frame=18545 fps=449 q=-0.0 size=N/A time=00:12:53.48 bitrate=N/A speed=18.7x    frame=18753 fps=449 q=-0.0 size=N/A time=00:13:02.15 bitrate=N/A speed=18.7x    frame=18955 fps=448 q=-0.0 size=N/A time=00:13:10.58 bitrate=N/A speed=18.7x    frame=19171 fps=448 q=-0.0 size=N/A time=00:13:19.59 bitrate=N/A speed=18.7x    frame=19372 fps=447 q=-0.0 size=N/A time=00:13:27.97 bitrate=N/A speed=18.7x    frame=19601 fps=447 q=-0.0 size=N/A time=00:13:37.52 bitrate=N/A speed=18.6x    frame=19817 fps=447 q=-0.0 size=N/A time=00:13:46.53 bitrate=N/A speed=18.6x    frame=20080 fps=447 q=-0.0 size=N/A time=00:13:57.50 bitrate=N/A speed=18.7x    frame=20339 fps=448 q=-0.0 size=N/A time=00:14:08.30 bitrate=N/A speed=18.7x    frame=20589 fps=448 q=-0.0 size=N/A time=00:14:18.73 bitrate=N/A speed=18.7x    frame=20815 fps=448 q=-0.0 size=N/A time=00:14:28.15 bitrate=N/A speed=18.7x    frame=20999 fps=447 q=-0.0 size=N/A time=00:14:35.83 bitrate=N/A speed=18.7x    frame=21227 fps=447 q=-0.0 size=N/A time=00:14:45.34 bitrate=N/A speed=18.7x    frame=21488 fps=448 q=-0.0 size=N/A time=00:14:56.22 bitrate=N/A speed=18.7x    frame=21735 fps=448 q=-0.0 size=N/A time=00:15:06.53 bitrate=N/A speed=18.7x    frame=21995 fps=449 q=-0.0 size=N/A time=00:15:17.37 bitrate=N/A speed=18.7x    frame=22223 fps=449 q=-0.0 size=N/A time=00:15:26.88 bitrate=N/A speed=18.7x    frame=22503 fps=450 q=-0.0 size=N/A time=00:15:38.56 bitrate=N/A speed=18.8x    frame=22746 fps=450 q=-0.0 size=N/A time=00:15:48.69 bitrate=N/A speed=18.8x    frame=23024 fps=451 q=-0.0 size=N/A time=00:16:00.29 bitrate=N/A speed=18.8x    frame=23246 fps=451 q=-0.0 size=N/A time=00:16:09.55 bitrate=N/A speed=18.8x    frame=23493 fps=451 q=-0.0 size=N/A time=00:16:19.85 bitrate=N/A speed=18.8x    frame=23736 fps=451 q=-0.0 size=N/A time=00:16:29.98 bitrate=N/A speed=18.8x    frame=23976 fps=451 q=-0.0 size=N/A time=00:16:39.99 bitrate=N/A speed=18.8x    frame=24207 fps=451 q=-0.0 size=N/A time=00:16:49.63 bitrate=N/A speed=18.8x    frame=24468 fps=452 q=-0.0 size=N/A time=00:17:00.51 bitrate=N/A speed=18.8x    frame=24709 fps=452 q=-0.0 size=N/A time=00:17:10.57 bitrate=N/A speed=18.8x    frame=24980 fps=453 q=-0.0 size=N/A time=00:17:21.87 bitrate=N/A speed=18.9x    frame=25243 fps=453 q=-0.0 size=N/A time=00:17:32.84 bitrate=N/A speed=18.9x    frame=25492 fps=453 q=-0.0 size=N/A time=00:17:43.22 bitrate=N/A speed=18.9x    frame=25707 fps=453 q=-0.0 size=N/A time=00:17:52.19 bitrate=N/A speed=18.9x    frame=25975 fps=454 q=-0.0 size=N/A time=00:18:03.37 bitrate=N/A speed=18.9x    frame=26227 fps=454 q=-0.0 size=N/A time=00:18:13.88 bitrate=N/A speed=18.9x    frame=26492 fps=454 q=-0.0 size=N/A time=00:18:24.93 bitrate=N/A speed=  19x    frame=26762 fps=455 q=-0.0 size=N/A time=00:18:36.19 bitrate=N/A speed=  19x    frame=27017 fps=455 q=-0.0 size=N/A time=00:18:46.83 bitrate=N/A speed=  19x    frame=27288 fps=456 q=-0.0 size=N/A time=00:18:58.13 bitrate=N/A speed=  19x    frame=27564 fps=457 q=-0.0 size=N/A time=00:19:09.64 bitrate=N/A speed=  19x    frame=27855 fps=458 q=-0.0 size=N/A time=00:19:21.78 bitrate=N/A speed=19.1x    frame=28140 fps=458 q=-0.0 size=N/A time=00:19:33.67 bitrate=N/A speed=19.1x    frame=28432 fps=459 q=-0.0 size=N/A time=00:19:45.85 bitrate=N/A speed=19.2x    frame=28706 fps=460 q=-0.0 size=N/A time=00:19:57.27 bitrate=N/A speed=19.2x    frame=28960 fps=460 q=-0.0 size=N/A time=00:20:07.87 bitrate=N/A speed=19.2x    frame=29249 fps=461 q=-0.0 size=N/A time=00:20:19.92 bitrate=N/A speed=19.2x    frame=29506 fps=461 q=-0.0 size=N/A time=00:20:30.64 bitrate=N/A speed=19.2x    frame=29748 fps=461 q=-0.0 size=N/A time=00:20:40.73 bitrate=N/A speed=19.2x    frame=29984 fps=461 q=-0.0 size=N/A time=00:20:50.58 bitrate=N/A speed=19.2x    frame=30250 fps=462 q=-0.0 size=N/A time=00:21:01.67 bitrate=N/A speed=19.3x    frame=30495 fps=462 q=-0.0 size=N/A time=00:21:11.89 bitrate=N/A speed=19.3x    frame=30747 fps=462 q=-0.0 size=N/A time=00:21:22.40 bitrate=N/A speed=19.3x    frame=30997 fps=462 q=-0.0 size=N/A time=00:21:32.83 bitrate=N/A speed=19.3x    frame=31255 fps=462 q=-0.0 size=N/A time=00:21:43.59 bitrate=N/A speed=19.3x    frame=31513 fps=463 q=-0.0 size=N/A time=00:21:54.35 bitrate=N/A speed=19.3x    frame=31756 fps=463 q=-0.0 size=N/A time=00:22:04.48 bitrate=N/A speed=19.3x    frame=31914 fps=462 q=-0.0 size=N/A time=00:22:11.07 bitrate=N/A speed=19.3x    frame=32056 fps=460 q=-0.0 size=N/A time=00:22:17.00 bitrate=N/A speed=19.2x    frame=32206 fps=459 q=-0.0 size=N/A time=00:22:23.25 bitrate=N/A speed=19.1x    frame=32361 fps=458 q=-0.0 size=N/A time=00:22:29.72 bitrate=N/A speed=19.1x    frame=32546 fps=457 q=-0.0 size=N/A time=00:22:37.43 bitrate=N/A speed=19.1x    frame=32708 fps=456 q=-0.0 size=N/A time=00:22:44.19 bitrate=N/A speed=  19x    frame=32866 fps=455 q=-0.0 size=N/A time=00:22:50.78 bitrate=N/A speed=  19x    frame=33012 fps=454 q=-0.0 size=N/A time=00:22:56.87 bitrate=N/A speed=18.9x    frame=33158 fps=453 q=-0.0 size=N/A time=00:23:02.96 bitrate=N/A speed=18.9x    frame=33292 fps=451 q=-0.0 size=N/A time=00:23:08.55 bitrate=N/A speed=18.8x    frame=33438 fps=450 q=-0.0 size=N/A time=00:23:14.64 bitrate=N/A speed=18.8x    frame=33597 fps=449 q=-0.0 size=N/A time=00:23:21.27 bitrate=N/A speed=18.7x    frame=33752 fps=448 q=-0.0 size=N/A time=00:23:27.73 bitrate=N/A speed=18.7x    frame=33961 fps=448 q=-0.0 size=N/A time=00:23:36.45 bitrate=N/A speed=18.7x    [Parsed_ssim_10 @ 00000226a4bb32c0] SSIM Y:0.993908 (22.152695) U:0.994585 (22.664353) V:0.993853 (22.113363) All:0.994012 (22.227190)
[out#0/null @ 00000226a4d654c0] video:14697KiB audio:267500KiB subtitle:0KiB other streams:0KiB global headers:0KiB muxing overhead: unknown
frame=34204 fps=448 q=-0.0 Lsize=N/A time=00:23:46.59 bitrate=N/A speed=18.7x    
